/* XPM */
static char * D:\1euro\images\CLz\bitcoin32_xpm[] = {
"32 32 202 2",
"  	c None",
". 	c #474747",
"+ 	c #484848",
"@ 	c #404040",
"# 	c #424242",
"$ 	c #454545",
"% 	c #4A4A4A",
"& 	c #535353",
"* 	c #434343",
"= 	c #414141",
"- 	c #505050",
"; 	c #878787",
"> 	c #A6A6A6",
", 	c #C3C3C3",
"' 	c #D9D9D9",
") 	c #DADADA",
"! 	c #D8D8D8",
"~ 	c #C1C1C1",
"{ 	c #828282",
"] 	c #3E3E3E",
"^ 	c #3C3C3C",
"/ 	c #545454",
"( 	c #969696",
"_ 	c #CFCFCF",
": 	c #E2E2E2",
"< 	c #EAEAEA",
"[ 	c #F1F1F1",
"} 	c #F6F6F6",
"| 	c #F5F5F5",
"1 	c #F0F0F0",
"2 	c #E9E9E9",
"3 	c #E0E0E0",
"4 	c #CBCBCB",
"5 	c #949494",
"6 	c #4B4B4B",
"7 	c #3D3D3D",
"8 	c #757575",
"9 	c #C6C6C6",
"0 	c #DBDBDB",
"a 	c #FEFEFE",
"b 	c #E1E1E1",
"c 	c #B9B9B9",
"d 	c #BCBCBC",
"e 	c #B6B6B6",
"f 	c #B8B8B8",
"g 	c #BDBDBD",
"h 	c #E3E3E3",
"i 	c #FCFCFC",
"j 	c #E7E7E7",
"k 	c #6D6D6D",
"l 	c #858585",
"m 	c #E4E4E4",
"n 	c #C5C5C5",
"o 	c #B2B2B2",
"p 	c #CCCCCC",
"q 	c #D1D1D1",
"r 	c #DCDCDC",
"s 	c #FDFDFD",
"t 	c #D0D0D0",
"u 	c #FBFBFB",
"v 	c #D4D4D4",
"w 	c #7E7E7E",
"x 	c #F4F4F4",
"y 	c #E8E8E8",
"z 	c #E5E5E5",
"A 	c #888888",
"B 	c #6C6C6C",
"C 	c #636363",
"D 	c #ACACAC",
"E 	c #ABABAB",
"F 	c #D6D6D6",
"G 	c #7F7F7F",
"H 	c #747474",
"I 	c #B1B1B1",
"J 	c #ECECEC",
"K 	c #DFDFDF",
"L 	c #EDEDED",
"M 	c #8B8B8B",
"N 	c #4D4D4D",
"O 	c #BABABA",
"P 	c #E6E6E6",
"Q 	c #AFAFAF",
"R 	c #D3D3D3",
"S 	c #6A6A6A",
"T 	c #3F3F3F",
"U 	c #555555",
"V 	c #C4C4C4",
"W 	c #B0B0B0",
"X 	c #EBEBEB",
"Y 	c #8A8A8A",
"Z 	c #444444",
"` 	c #595959",
" .	c #BEBEBE",
"..	c #F7F7F7",
"+.	c #DEDEDE",
"@.	c #BFBFBF",
"#.	c #464646",
"$.	c #4F4F4F",
"%.	c #959595",
"&.	c #898989",
"*.	c #737373",
"=.	c #525252",
"-.	c #D5D5D5",
";.	c #EFEFEF",
">.	c #F3F3F3",
",.	c #F2F2F2",
"'.	c #8F8F8F",
").	c #CDCDCD",
"!.	c #C7C7C7",
"~.	c #EEEEEE",
"{.	c #F8F8F8",
"].	c #717171",
"^.	c #515151",
"/.	c #D2D2D2",
"(.	c #BBBBBB",
"_.	c #777777",
":.	c #A4A4A4",
"<.	c #FAFAFA",
"[.	c #3B3B3B",
"}.	c #2D2D2D",
"|.	c #9E9E9E",
"1.	c #B4B4B4",
"2.	c #B5B5B5",
"3.	c #C9C9C9",
"4.	c #C4BEBE",
"5.	c #D7D4D4",
"6.	c #A99F9F",
"7.	c #9F9494",
"8.	c #C6C1C1",
"9.	c #BEB7B7",
"0.	c #C0C0C0",
"a.	c #C2BCBC",
"b.	c #A39A9A",
"c.	c #C0BABA",
"d.	c #B3ABAB",
"e.	c #BBB4B4",
"f.	c #CBC6C6",
"g.	c #C2BBBB",
"h.	c #CCC7C7",
"i.	c #CACACA",
"j.	c #CFCACA",
"k.	c #D9D5D5",
"l.	c #B5ADAD",
"m.	c #BAB3B3",
"n.	c #B7AFAF",
"o.	c #CEC9C9",
"p.	c #D0CBCB",
"q.	c #DAD6D6",
"r.	c #D1CDCD",
"s.	c #9A8E8E",
"t.	c #BCB5B5",
"u.	c #B3B3B3",
"v.	c #A3A3A3",
"w.	c #D6D3D3",
"x.	c #DAD8D8",
"y.	c #D3CFCF",
"z.	c #B6AEAE",
"A.	c #BBB3B3",
"B.	c #C1BABA",
"C.	c #9B9B9B",
"D.	c #808080",
"E.	c #D7D7D7",
"F.	c #C2C2C2",
"G.	c #707070",
"H.	c #C8C8C8",
"I.	c #B0A7A7",
"J.	c #AAA0A0",
"K.	c #ADA4A4",
"L.	c #909090",
"M.	c #F9F9F9",
"N.	c #ADADAD",
"O.	c #9C9191",
"P.	c #C3BDBD",
"Q.	c #ABA1A1",
"R.	c #9B9090",
"S.	c #E2E0E0",
"T.	c #494949",
"U.	c #B1A9A9",
"V.	c #B4ABAB",
"W.	c #B9B2B2",
"X.	c #B3AAAA",
"Y.	c #BFB9B9",
"Z.	c #6B6B6B",
"`.	c #B8B1B1",
" +	c #A49A9A",
".+	c #D8D4D4",
"++	c #998D8D",
"@+	c #E8E7E7",
"#+	c #B1A8A8",
"$+	c #C1BBBB",
"%+	c #5C5C5C",
"&+	c #7C7C7C",
"*+	c #DDDDDD",
"=+	c #E1E0E0",
"-+	c #E4E3E3",
";+	c #727272",
">+	c #7B7B7B",
",+	c #CECECE",
"'+	c #686868",
")+	c #8D8D8D",
"!+	c #868686",
"~+	c #393939",
"                              . +                               ",
"                      @ # $ % & & + * = @                       ",
"                = = - ; > , ' ) ) ! ~ > { % ] %                 ",
"              ^ / ( _ ) : < [ } | 1 2 3 ' 4 5 6 7               ",
"            = 8 9 0 < a b c d e f g c h i j ! , k ^             ",
"          * l ! m a n o p | q ' 0 r s t e p u b v w ^           ",
"        # l ) < x > y m j z A A B C D : m : E | z F G ^         ",
"      ^ H ! 2 y I J K : j L M 8 N C O P z h J Q J m R S T       ",
"    = U V m | W z : : h h X Y k Z `  .j J J 2 2 o ..+.@.#.$.    ",
"    # %.) a > j z j P m b x &.*.* =.-.;.;.>.,.< J o ..-.'.]     ",
"    =.).2 !.3 : X L ;.[ ~.{.{ ].Z ^.! ;.L L 1 ~.y b /.: n *     ",
"  @ l ' s W z z < ~.;.X < u H / # Z P 2 ~.J ~.1 ,.y (...-._.#   ",
"  Z :.3 z 4 h P P y : K : <.=.. [.}.J ;.1 L ,.| | ~.).< ) |.]   ",
"  +  .y g ~.b z y j m z X ~.x g 1.J } >.~.;.~.;.;.2 ,.~ : 2.@   ",
"  N v ;.V X y J ;.;.;.~.;.L < < L ,.x ;.J L 1 ;.L J X 3.j p ^   ",
". =.' >.~ < X L ~.J 4.5.[ ,.>.6.7.8.1 9.< 1 {.{.{.;.~.3.X t Z   ",
"+ - ! >.0.j y J 2 a.b.5.[ 1 c.x 1 d.L e.L x f.g.h.L L i.X _ *   ",
"  6 /.L , y y L 1 ~.j.k.>.1 l.~.X y y m.;.| | n.o.2 J ).P 4 [.  ",
"  $ g P @.J m ;.| ..p.5.,.x q.r.,.s.X t.;.[ a.f.| J x V 3 u.]   ",
"  * v.+.j 4 P J 1 ,.w.x.X ;.>.y.z.x.~.z.n.d.a.A.B.y p L ' C.T   ",
"  T D.E.<.(.< P X L X j < 1 [ L j < y 2 J 1 | | ~.X F.>./.G.$   ",
"    6 H.z t K K b 2 < < I.~.;.J.L L K.J X ;.,.1 2 z E.3 ~ 7     ",
"    T L.E.M.N.h K < L >.e.O.P.Q.R.j.d.S.S.1 X P L d ,./.A @     ",
"    T.6 @.3 ..W 2 j < ,.l.[ U.V.x W.X.2 Y.P 2 2  .| 0 d 7       ",
"      7 Z.R m L 1.P h X `. +.+d.++@+Q.#+$+: L @.J K ).%+$       ",
"        ^ &+F h {.1.*+m m j 2 j y X J =+-+z d | 3 q ;+]         ",
"          ^ >+/.+...v  .3.;.j m b h X ,+V E.>.r ).].[.          ",
"            [.'+@.F h ..X , 3.n , i.9 J x 3 R d %+T             ",
"              T # )+9 F 0 h y L J j b ) v , !+^ .               ",
"                  ] @ H |.e ).q t p 2.C.k [.@                   ",
"                      Z T 7 ~+@ T ~+7 @ T.                      ",
"                                                                "};
