/* XPM */
static char * D:\1euro\images\CLz\bitcoin64_xpm[] = {
"64 64 311 2",
"  	c None",
". 	c #5A5A5A",
"+ 	c #595959",
"@ 	c #494949",
"# 	c #4C4C4C",
"$ 	c #484848",
"% 	c #454545",
"& 	c #464646",
"* 	c #5B5B5B",
"= 	c #5D5D5D",
"- 	c #5E5E5E",
"; 	c #3A3A3A",
"> 	c #343434",
", 	c #333333",
"' 	c #373737",
") 	c #3E3E3E",
"! 	c #434343",
"~ 	c #474747",
"{ 	c #414141",
"] 	c #3B3B3B",
"^ 	c #363636",
"/ 	c #323232",
"( 	c #353535",
"_ 	c #505050",
": 	c #616161",
"< 	c #3C3C3C",
"[ 	c #4E4E4E",
"} 	c #636363",
"| 	c #626262",
"1 	c #646464",
"2 	c #676767",
"3 	c #717171",
"4 	c #606060",
"5 	c #383838",
"6 	c #3D3D3D",
"7 	c #515151",
"8 	c #313131",
"9 	c #393939",
"0 	c #525252",
"a 	c #656565",
"b 	c #6E6E6E",
"c 	c #878787",
"d 	c #A4A4A4",
"e 	c #B3B3B3",
"f 	c #CACACA",
"g 	c #D2D2D2",
"h 	c #D0D0D0",
"i 	c #D1D1D1",
"j 	c #C8C8C8",
"k 	c #B2B2B2",
"l 	c #A1A1A1",
"m 	c #848484",
"n 	c #6D6D6D",
"o 	c #666666",
"p 	c #6C6C6C",
"q 	c #919191",
"r 	c #C0C0C0",
"s 	c #D4D4D4",
"t 	c #D7D7D7",
"u 	c #D9D9D9",
"v 	c #DADADA",
"w 	c #DBDBDB",
"x 	c #D8D8D8",
"y 	c #D6D6D6",
"z 	c #D3D3D3",
"A 	c #BABABA",
"B 	c #8F8F8F",
"C 	c #696969",
"D 	c #535353",
"E 	c #AAAAAA",
"F 	c #DDDDDD",
"G 	c #E0E0E0",
"H 	c #E3E3E3",
"I 	c #E5E5E5",
"J 	c #E8E8E8",
"K 	c #EAEAEA",
"L 	c #E9E9E9",
"M 	c #E7E7E7",
"N 	c #DFDFDF",
"O 	c #DCDCDC",
"P 	c #CFCFCF",
"Q 	c #6F6F6F",
"R 	c #404040",
"S 	c #4B4B4B",
"T 	c #6B6B6B",
"U 	c #6A6A6A",
"V 	c #ABABAB",
"W 	c #DEDEDE",
"X 	c #EDEDED",
"Y 	c #F1F1F1",
"Z 	c #F4F4F4",
"` 	c #F8F8F8",
" .	c #FAFAFA",
"..	c #FBFBFB",
"+.	c #F6F6F6",
"@.	c #EEEEEE",
"#.	c #E6E6E6",
"$.	c #E1E1E1",
"%.	c #D5D5D5",
"&.	c #A7A7A7",
"*.	c #686868",
"=.	c #555555",
"-.	c #3F3F3F",
";.	c #5C5C5C",
">.	c #8C8C8C",
",.	c #ECECEC",
"'.	c #F2F2F2",
").	c #F9F9F9",
"!.	c #FFFFFF",
"~.	c #BBBBBB",
"{.	c #BDBDBD",
"].	c #CBCBCB",
"^.	c #F7F7F7",
"/.	c #CDCDCD",
"(.	c #8A8A8A",
"_.	c #B5B5B5",
":.	c #FEFEFE",
"<.	c #A2A2A2",
"[.	c #7D7D7D",
"}.	c #838383",
"|.	c #8D8D8D",
"1.	c #AEAEAE",
"2.	c #B6B6B6",
"3.	c #BCBCBC",
"4.	c #ADADAD",
"5.	c #7C7C7C",
"6.	c #F3F3F3",
"7.	c #EBEBEB",
"8.	c #CECECE",
"9.	c #ACACAC",
"0.	c #565656",
"a.	c #707070",
"b.	c #FCFCFC",
"c.	c #777777",
"d.	c #949494",
"e.	c #F0F0F0",
"f.	c #EFEFEF",
"g.	c #9D9D9D",
"h.	c #C4C4C4",
"i.	c #C3C3C3",
"j.	c #424242",
"k.	c #7B7B7B",
"l.	c #737373",
"m.	c #B8B8B8",
"n.	c #A0A0A0",
"o.	c #B9B9B9",
"p.	c #B7B7B7",
"q.	c #BEBEBE",
"r.	c #7E7E7E",
"s.	c #C7C7C7",
"t.	c #F5F5F5",
"u.	c #FDFDFD",
"v.	c #727272",
"w.	c #969696",
"x.	c #898989",
"y.	c #999999",
"z.	c #888888",
"A.	c #E4E4E4",
"B.	c #747474",
"C.	c #4A4A4A",
"D.	c #C1C1C1",
"E.	c #7A7A7A",
"F.	c #979797",
"G.	c #545454",
"H.	c #E2E2E2",
"I.	c #808080",
"J.	c #CCCCCC",
"K.	c #C9C9C9",
"L.	c #A3A3A3",
"M.	c #9E9E9E",
"N.	c #939393",
"O.	c #787878",
"P.	c #9A9A9A",
"Q.	c #B4B4B4",
"R.	c #9B9B9B",
"S.	c #9F9F9F",
"T.	c #757575",
"U.	c #575757",
"V.	c #868686",
"W.	c #797979",
"X.	c #9C9C9C",
"Y.	c #858585",
"Z.	c #8E8E8E",
"`.	c #8B8B8B",
" +	c #4D4D4D",
".+	c #C2C2C2",
"++	c #585858",
"@+	c #4F4F4F",
"#+	c #444444",
"$+	c #828282",
"%+	c #959595",
"&+	c #AFAFAF",
"*+	c #909090",
"=+	c #AEA5A5",
"-+	c #CCC7C7",
";+	c #B4ACAC",
">+	c #978B8B",
",+	c #A39999",
"'+	c #DBD9D9",
")+	c #A79D9D",
"!+	c #CDC8C8",
"~+	c #BFBFBF",
"{+	c #B1A8A8",
"]+	c #988B8B",
"^+	c #C3BDBD",
"/+	c #A09595",
"(+	c #A09696",
"_+	c #D2CECE",
":+	c #DCD9D9",
"<+	c #AAA1A1",
"[+	c #E0DEDE",
"}+	c #988C8C",
"|+	c #C2BCBC",
"1+	c #5F5F5F",
"2+	c #A59C9C",
"3+	c #CEC9C9",
"4+	c #EDECEC",
"5+	c #ADA4A4",
"6+	c #D7D3D3",
"7+	c #C4BEBE",
"8+	c #DDDBDB",
"9+	c #C6C0C0",
"0+	c #C8C2C2",
"a+	c #C9C3C3",
"b+	c #E1DDDD",
"c+	c #C6C6C6",
"d+	c #C9C5C5",
"e+	c #BFB9B9",
"f+	c #D9D6D6",
"g+	c #ACA2A2",
"h+	c #A69B9B",
"i+	c #C5C0C0",
"j+	c #C5C5C5",
"k+	c #BCB5B5",
"l+	c #F0EFEF",
"m+	c #A49999",
"n+	c #C7C1C1",
"o+	c #BFB8B8",
"p+	c #C6C1C1",
"q+	c #9B8F8F",
"r+	c #9E9393",
"s+	c #E2E0E0",
"t+	c #C3BEBE",
"u+	c #978A8A",
"v+	c #C0BABA",
"w+	c #C1BCBC",
"x+	c #A19797",
"y+	c #9B9090",
"z+	c #F1F0F0",
"A+	c #CFCACA",
"B+	c #978C8C",
"C+	c #A69C9C",
"D+	c #A59B9B",
"E+	c #A19696",
"F+	c #A9A0A0",
"G+	c #ABA1A1",
"H+	c #A59A9A",
"I+	c #ADA3A3",
"J+	c #989898",
"K+	c #DEDBDB",
"L+	c #EFEEEE",
"M+	c #D8D5D5",
"N+	c #C0B9B9",
"O+	c #C1BBBB",
"P+	c #DDDADA",
"Q+	c #C5BFBF",
"R+	c #D1CCCC",
"S+	c #929292",
"T+	c #7F7F7F",
"U+	c #B1B1B1",
"V+	c #767676",
"W+	c #E0DFDF",
"X+	c #E7E6E6",
"Y+	c #E5E4E4",
"Z+	c #E1E0E0",
"`+	c #A89E9E",
" @	c #E3E1E1",
".@	c #ABA2A2",
"+@	c #E1DFDF",
"@@	c #998D8D",
"#@	c #9B9191",
"$@	c #998E8E",
"%@	c #A89F9F",
"&@	c #DFDCDC",
"*@	c #9D9292",
"=@	c #9E9494",
"-@	c #E6E5E5",
";@	c #9A8E8E",
">@	c #C2BDBD",
",@	c #E0DDDD",
"'@	c #E1DEDE",
")@	c #A8A8A8",
"!@	c #DEDCDC",
"~@	c #CBC5C5",
"{@	c #EAE9E9",
"]@	c #DBD8D8",
"^@	c #E7E5E5",
"/@	c #D1CDCD",
"(@	c #A29797",
"_@	c #AAA0A0",
":@	c #C7C2C2",
"<@	c #C2BBBB",
"[@	c #BAB2B2",
"}@	c #A49A9A",
"|@	c #B1AAAA",
"1@	c #C0BBBB",
"2@	c #DAD8D8",
"3@	c #D4D0D0",
"4@	c #CDCACA",
"5@	c #D3D1D1",
"6@	c #818181",
"                                                                                                                                ",
"                                                    . + @ # $ % & @ # # * =                                                     ",
"                                            - # ; > , ' ) ! ~ $ @ % { ] ^ / ( ) _ :                                             ",
"                                        # ' / < [ - } | 1 : 2 3 3 2 4 } : : + ~ 5 / 6 7                                         ",
"                                    $ 8 9 0 a | b c d e f g h i i i i j k l m n : - ~ ( ( [                                     ",
"                                $ 8 ) * o p q r i h g s t u v w v v x y z h h h A B C | 7 ^ ( D                                 ",
"                            . ^ 9 + 2 3 E g h s u F G H I J J K L M M I H N O t z P P d Q | # , R 4                             ",
"                          @ 8 S T U V z i x W H J X Y Z ` `  ..... .` +.Z @.K #.$.O %.P i &.*.: 6 > =.                          ",
"                        -.^ ;.o >.h h u N #.,.'.)...!.!.Z x f ~.{.].v ^.!.!...+.Y K H F y /.].(.| # 8 #                         ",
"                      ] ) a C _.i t W M @.+...:.M <.[.}.|.1.2.3.3.A 4.|.m 5.&.,.:. .6.7.H O s 8.9.*.0., %                       ",
"                    ' { U a.].i v H 7.+.b.b.~.c.d.t e.,.@.f.Y e.Y Y '.e.Z  .t g.}.h.!...Y J N t /.i.n = ( !                     ",
"                  ] j.U k.8.z F M e. .b.{.l.{.^.#.I H e.m.n.2.m.o.~.p.~.H X #.K e.q.r.s.!.^.@.H v h j l.= > %                   ",
"                -.-.U k.i %.G L t.u.K v.m.` M #.#.M J y m <.V w.x.y.z.} *.Z H A.I #.e.m.5.6...f.I w i ].B.= / C.                ",
"              $ ' 2 a./.s N 7.+.u.D.E.).K J H I #.K L F }.F.>.G./ p *.D p '.H A.H H.H I f.I.J.:.Y #.v h j p 0./ D               ",
"            . / = *.K.z N L ` :.<.L.Y #.A.G H H I L M H m M.N.=., b l.=.O.e.#.I H.H.H H H @.P.9.!.'.I w 8.i.o @ ( }             ",
"            ( # a Q.h F J +.b.R.r J $.H G N H.A.J J M K }.S.d.=.( C T.U.V.X J M L J #.I #.#.J 3.&.!.f.A.x J.E 4 ; %             ",
"          ~ ; p (.h v #.Z :.d q.H H $.H.G H.A.A.A.#.I W c n.F.. 5 o T.D W.f.J M 7.K 7.L J J J L ~.e u.@.$.s J.m ;./ U.          ",
"          , * *.8.y H Y b.h.l I H A.H A.H I H A.H $.H Y m d.[.C.5 & D 0.y.@.L K @.@.X f.@.L M #.J X.t ).K W h s.a % <           ",
"        $ -.*.&.h W 7. .,.r.M $.A.I M #.J A.M A.$.H.H 6.Y.P.Z.0.; G.4 =.d Y f.X X e.'.Z Y Y 7.M A.X }. .6.#.u f l = , =.        ",
"        / - b z t I t.:.O.7.H.$.A.J J J M L I H A.H M ` c F.`.U.9 _ =.7 k t.Y e.'.@.e.6.'.6.f.K #.M X (.!.@.$.g J.T % 6         ",
"       +< *.&.h N X ...+_.H H.H.J ,.,.,.,.X 7.X 7.K 7.@.}.B m ++9 @+D D d '.Z @.Y X X @.e.'.Y X 7.#.I 2.s ^.#.u ].R.= / *       ",
"      ' =.U h t I t.u.T.@.$.H I 7.,.@.@.Y Z t.t.6.e.e.u.V.`.x.0.5 . - G.K.@.X X @.K ,.@.e.e.@.X K J L X c !.f.N g K.} < ~       ",
"    4 , 2 Z.8.F 7...D.Q.A.I I J 7.X @.Y '.t.@.Y f.f.,.u.I.r.*.S j.& @ C.8.L 7.7.X e.,.,.X X Y Y e.,.M A.p.s +.I t ].Y.0 '       ",
"    $ -.1 A g H.Y !.5.@.I I $.L J 7.K e.,.J M M #.I M !.c.v.+  +{ #+ +0 y ,.7.L @.X ,.@.f.'.e.'.+.6.X 7.Z z.!.7.F /.4.* , +     ",
"    ; 0 p P x #.^.,.d.#.#.A.#.M J K K J I #.H.$.H H I u.n _ _ & ) -.#+[ P @.,.Y e.e.f.@.'.'.t.+.Z +.Y @.7.y.).f.$.g ].4 5 S     ",
"    > 4 $+h w K b.E %.H.H $.A.#.#.H M J $.H.$.N H H.#.:.Y.@+ +~ R ) < ' H.Y '.f.Y f.@.@.Y 6.Y +.t.Z e.K K z {.t.I %.f E.~ 6     ",
"  : , *.R.P W f.!.}.6.$.H G H H #.L M M H A.H.H.I J J  .!.P %+3 } E.d  .u.t.6.'.f.@.f.f.f.f.'.f.6.@.,.L J Z q b.J u f %+0 '     ",
"  =.9 1 &+z H.Y !.(.#.H.$.I M 7.J L M 7.#.L K 7.@.f.,.@.f.,.e.t.^.^.Z Z +.'.t.Y f.e.f.e.f.X @.f.,.f.7.J L K *+!.,.O /.g.* > o   ",
"  C.{ o .+s H t.).%+#.H M #.K ,.X @.X e.e.X f.f.f.@.@.X 7.M M 7.7.e.Z '.+.t.'.@.f.X f.f.e.f.e.X L @.X M J H F.!.@.W h A 0./ 0.  ",
"  ! & | P y I ` O o.,.J K K X @.'.e.e.f.=+-+X @.Y e.Y ,.X ;+>+>+,+'+'.6.)+!+6.,.K X K Y Z e.e.e.Y e.'.,.K L 1.@.e.N h ~++ > 4   ",
"  C.C.} h x #.).i .+L M 7.,.X e.Y f.f.{+]+^+f.Y e.e.e.'./+(+_+:+<+>+[+f.}+|+,.,.J X X Z ` +.t.^.+.t.6.@.X 7.{.H.Y $.g D.1+^ *   ",
"  & # U P x M ` s..+J K K 7.,.X e.K >+2+}+^+e.Y '.6.6.3+>+4+).^.t.5+6+Y }+7+X K K 7.8+9+0+a+a+b+ .).Y X 7.,..+%.Y $.z c+a ^ G.  ",
"  ~ S C P x M ` j .+I M L J 7.,.X J d+J >+^+'.Z Z '.Z e+>+^.6.).6.Y f.K }+|+Y ,.@.,.f+g+g+h+>+i+).Z Y 7.L ,.h.y Y $.z j+a ^ 0.  ",
"  C.$ : P t #.).g 3.I A.M 7.,.@.,.J L 7.}+9+Z +.Z f.Y k+>+f.e.6.e.f.X ,.}+^+f.@.f.f.6.6.l+}+m+` +.Y Y L K ,.A I Y G i D.1+> *   ",
"  #+! | 8.t A.+.G e #.#.#.X 7.@.e.,.K X }+n++.+.Z '.6.o+>+f.@.f.e.p+L J }+|+,.X f.f.Z e.q+r+t.t.Z Y ,.#.M L k f.e.W h q.0., :   ",
"  @+6 o {.z H Z u.|.A.H H K @.Y 6.Y Y Z }+0+` t.+.6.'.s+]+t+e.Y _+u+v+J }+w+,.X Y Y +.x+y+z+Z ^.Y Y ,.K L K S.!.X O P p.=.> U.  ",
"  G.' | &+i G Y !.`.I H $.M e.e.t.+.` ^.}+0+^.Z t.6.Z t.A+B+(+C+>+D+7.@.}+E+F+<+G+C+p+>+H+g+I+o+t.6.@.K K X w.!.7.v ].R.U.> *.  ",
"  1 / a J+P F X !.(.@.G H J 7.'.t.Z +.+.7+K+'.6.e.e.6.6.t.L+a+9+M+Y Y @.N+^+O+|+|+O+P+Q+9+9+n+R++.t.e.K K Z w. .M t K.S+[ 9     ",
"    ( * T+h v J ).U+z H.#.L K Y Y '.6.Z e.Y f.,.7.,.@.Y Z t.6.+.Y Y e.X Y X X f.,.X e.X t.t.^.t.Z 6.X L K g j+6.H s K.V+{ #+    ",
"    -.C.T /.%.A.t.'.J+M I J 7.X f.e.'.e.e.X L 7.,.X e.e.Y '.Y t.,.f.,.K f.,.@.@.7.7.f.e.Z ^.t.6.'.Y K M L R.b.X N h s.= ( @+    ",
"    [ 5 | Q.i G @.!.z.6.L L J K @.@.@.Y ,.X K M 7.7.6.@.Y Y X Y 7.M X J K 7.I @.K X e.Y t.t.t.'.f.f.,.,.+.S+u.J v ].&.=., =     ",
"      8 : x.J.v M  .8.3.L L A.I L M K ,.K K M L L W+Y @.Y Y X+Y+K J 7.J W+Z+L X ,.f.'.f.t.+.` Z Y ,.L K e H.'.H %.j $+~ <       ",
"      < @ 2 J.s H.Y !.Y.e.I G H.G J 7.K ,.L 7.7.M+}+e.@.f.e.O+`+@.X X 7.`+O+,.@.,.,.f.Y Z 6.Z '.,.K L ).Z.!.7.F P h.= ( _       ",
"      =.( 1 M./.w K ).h e $.N F N H.L L K K J f.P+}+f. @,.@.|+.@L +@@.@.G+^+K X K X e.@.e.'.f.X #.7.7.p.H '.A.y j %+D > -       ",
"        ( 0 p 8.s H.e.!.Y.I F O W G L K ,.e.e.+.P+}+@@#@B+e.7+}+q+$@%@e..@^+e.@.e.f.'.X Y 7.L L I M Y F.u.K F P K.} ] ~         ",
"        @+^ } S./.v #.t.^.T+A.W G H K K 7.f.Y Z &@}+@.e.*@0+^+=@Y l+}+-@G+^+^+;@>+>@Y f.7.J #.I #.Y B u.f.H.%.s.y.D , ;.        ",
"          ( # o j i W ,. .z F.#.A.L L 7.X @.Y 6.,@>+'.'.F+^+Q+<+t.Z B+'@<+|+,.J >+,.@.J 7.K #.M L )@H Z I v /..+1+5 ~           ",
"          7 , | m /.y H.f.u.Q.~.K A.I I L #.f.6.!@>+~@{@>+]@9+]+^@/@>+@.G+O+K >+H A.H A.M #.#.7.j+c+` L W i f T+ +^ 1+          ",
"            R 6 } )@J.u H e.!.1.~.M H.G A.#.X @.K+(@_@>+:@6.<@[@>+>+P+Y H+N+;+}@|@1@H G $.M K c+3...7.G g j n.=./ 7             ",
"              > S o D.8.w I Y !.o.M.#.G N I L K 7.X '.f.e.'.@.e.e.e.t.e.+.Y 2@3@4@5@I H M Y )@c+..,.$.%.f o.* 9 {               ",
"              G.8 =.C c+h w I f.u.w x.#.N A.I I L I #.7.K X L K ,.K @.@.Y f.,.7.,.K K M Y Z.H ` ,.$.y ].r } j.; -               ",
"                S , ;.v.].P v H @.)...Z.Q.@.H I H H I M #.K #.#.#.#.J J J L J ,.@.f. .o.w.:.Z K G t J.j+*.C.> +                 ",
"                  ~ > ;.a.s.P x H.L Z !.t (.m.'.H H H A.I I H H.N G H.H.$.#.J 7.).A B H.:.f.M F z ].D.*.C./ D                   ",
"                    % , * *.D.].%.F #.@.^.!.t |.g.h 6.L H H H.N G W N W H @.z S.S+G !.6.K H w g j o.| @ / D                     ",
"                      ~ 8 0 1 &.J.h u $.M e.+.!.).{.S+d.y.E U+e U+4.V J+w.y..+..u.Z ,.A.W y /.f l * { > G.                      ",
"                        [ 8 & - }.c+].z u N #.,.Y ^.u.!.!.f.#.v w #.e.!.!...Z f.L H W t P j .+T+=.5 ] .                         ",
"                          =.5 ' ++} S.J.J.z x W H.#.L X f.Y 6.Z 6.'.e.@.,.J A.G w y i K.f P.- S / #+-                           ",
"                              ~ / -.+ C P.K.].8.g t v F N $.H.H.H.H.G W O x %.i /.f c+%+: @+' ' D                               ",
"                                ++R 8 { + 4 Y.4.].J.J.8.h g g z z g g P /.].J.s.)@6@* @+' , C.4                                 ",
"                                    + R , 5 # U.- W.%+M.A ~+i.c+c+.+~+m.g.N.T.* 7 ! > ^ C.-                                     ",
"                                        ;. +; , ^ { # =.G.G.;.: : * 0 0 0 $ < , > { G.4                                         ",
"                                              = @+! ; > , / , > , / , , ' 6 C.D :                                               ",
"                                                      *.++} - + + 1+1 ++T                                                       ",
"                                                                                                                                "};
