/* XPM */
static char * D:\1euro\images\CLz\bitcoin16_xpm[] = {
"16 16 106 2",
"  	c None",
". 	c #3E3E3E",
"+ 	c #404040",
"@ 	c #3B3B3B",
"# 	c #535353",
"$ 	c #A0A0A0",
"% 	c #D6D6D6",
"& 	c #F3F3F3",
"* 	c #F2F2F2",
"= 	c #D5D5D5",
"- 	c #9B9B9B",
"; 	c #515151",
"> 	c #7E7E7E",
", 	c #EDEDED",
"' 	c #C7C7C7",
") 	c #CECECE",
"! 	c #DCDCDC",
"~ 	c #D7D7D7",
"{ 	c #EAEAEA",
"] 	c #777777",
"^ 	c #EEEEEE",
"/ 	c #C6C6C6",
"( 	c #E7E7E7",
"_ 	c #7B7B7B",
": 	c #E6E6E6",
"< 	c #C8C8C8",
"[ 	c #ECECEC",
"} 	c #545454",
"| 	c #C5C5C5",
"1 	c #E3E3E3",
"2 	c #797979",
"3 	c #414141",
"4 	c #E1E1E1",
"5 	c #EFEFEF",
"6 	c #CCCCCC",
"7 	c #4F4F4F",
"8 	c #9F9F9F",
"9 	c #F0F0F0",
"0 	c #FBFBFB",
"a 	c #6A6A6A",
"b 	c #3C3C3C",
"c 	c #EBEBEB",
"d 	c #D8D8D8",
"e 	c #939393",
"f 	c #D2D2D2",
"g 	c #E0E0E0",
"h 	c #8B8B8B",
"i 	c #F8F8F8",
"j 	c #F1F1F1",
"k 	c #D9D9D9",
"l 	c #CBCBCB",
"m 	c #373737",
"n 	c #D4D4D4",
"o 	c #E8E7E7",
"p 	c #ECEBEB",
"q 	c #D0CCCC",
"r 	c #E2E1E1",
"s 	c #F4F4F4",
"t 	c #D1D1D1",
"u 	c #B4ACAC",
"v 	c #E5E4E4",
"w 	c #D3CECE",
"x 	c #D0CDCD",
"y 	c #D3CFCF",
"z 	c #E2DFDF",
"A 	c #BFB9B9",
"B 	c #DADADA",
"C 	c #E9E9E9",
"D 	c #DEDCDC",
"E 	c #E1E0E0",
"F 	c #E5E3E3",
"G 	c #E5E5E5",
"H 	c #C3BCBC",
"I 	c #D4D0D0",
"J 	c #DFDCDC",
"K 	c #DAD8D8",
"L 	c #DBDBDB",
"M 	c #C9C9C9",
"N 	c #999999",
"O 	c #E8E8E8",
"P 	c #E4E3E3",
"Q 	c #D9D5D5",
"R 	c #D8D6D6",
"S 	c #D6D3D3",
"T 	c #D8D5D5",
"U 	c #D9D6D6",
"V 	c #8D8D8D",
"W 	c #505050",
"X 	c #BDB7B7",
"Y 	c #B3ABAB",
"Z 	c #C4BFBF",
"` 	c #B7AFAF",
" .	c #D3D3D3",
"..	c #E2E2E2",
"+.	c #4D4D4D",
"@.	c #767676",
"#.	c #CAC6C6",
"$.	c #6D6D6D",
"%.	c #747474",
"&.	c #D4D2D2",
"*.	c #4E4E4E",
"=.	c #919191",
"-.	c #CACACA",
";.	c #8C8C8C",
">.	c #4C4C4C",
",.	c #363636",
"            . + + @             ",
"        # $ % & * = - ;         ",
"      > , = = ' ) ! ~ { ]       ",
"    > ^ / ( ^ _ ; ) : < [ ]     ",
"  } [ | ( 1 ^ 2 3 4 5 ^ 6 : 7   ",
"  8 = ( , 9 0 a b ^ [ 5 c d e   ",
". f = 1 : g * h ] i ^ j 5 k l m ",
"+ 9 n c ^ o p 9 q { r s 9 d ( b ",
"+ ^ t { { u v w { x y z A B : b ",
"@ t = C s D E F G H I J K L M m ",
"  N k : O P Q , R S T J U B V   ",
"  W ( ' C 9 X Y Z ` [ {  ...+.  ",
"    @.c 6 : #.r X T :  .( $.    ",
"      %.: B d n t B &.1 $.      ",
"        *.=.6 C ( -.;.>.        ",
"            ,.@ @ m             "};
